# xmcd
#
# Track frame offsets:
#	150
#	15181
#	33511
#	51260
#
# Disc length: 922 seconds
#
# Revision: 0
# Processed by: cddbd v1.5.1PL0 Copyright (c) Steve Scherf et al.
# Submitted via: dBpowerAMP V4.0
#
DISCID=25039804
DTITLE=Ugli - Trash
DYEAR=2005
DGENRE=Blues
TTITLE0=Stacey's Eyes
TTITLE1=Robinhood's Been Drinking
TTITLE2=So Cold
TTITLE3=Never Knew A Life So Good
EXTD=Lem's From Nottingham
EXTT0=
EXTT1=
EXTT2=
EXTT3=
PLAYORDER=
